# xmcd
# 
# Track frame offsets:
#     150
#     20562
#     41115
#     52774
#     75334
#     90926
#     102276
#     119651
#     142952
#     158871
# 
# Disc length: 2338
# 
# Revision: 7
# Processed by: cddbd v1.5.2PL0 Copyright (c) Steve Scherf et al.
# Submitted via: fre:ac v1.0.31
# 
DISCID=7209200a
DTITLE=Van Morrison - Moondance Disc 1
DYEAR=1970
DGENRE=Rock/Pop
TTITLE0=And It Stoned Me
TTITLE1=Moondance
TTITLE2=Crazy Love
TTITLE3=Caravan
TTITLE4=Into The Mystic
TTITLE5=Come Running
TTITLE6=These Dreams Of You
TTITLE7=Brand New Day
TTITLE8=Everyone
TTITLE9=Glad Tidings
EXTD=YEAR: 2013\n\nMARO\n
EXTT0=
EXTT1=
EXTT2=
EXTT3=
EXTT4=
EXTT5=
EXTT6=
EXTT7=
EXTT8=
EXTT9=
PLAYORDER=
